<svg width="181" height="47" viewBox="0 0 181 47" fill="none" xmlns="http://www.w3.org/2000/svg">
<g clip-path="url(#clip0_2096_30964)">
<path d="M82.1951 32.4157H87.8023L83.2025 16.743C83.0289 16.0298 82.6214 15.3981 82.0475 14.9523C81.4735 14.5064 80.7672 14.2731 80.0454 14.2908C79.3866 14.2663 78.7362 14.4477 78.1818 14.8106C77.6726 15.1677 77.249 15.6369 76.9426 16.1835L74.0314 21.2481C73.6317 21.94 73.2825 22.5441 72.9838 23.0603C72.6834 23.5753 72.4201 24.0418 72.1939 24.4597C71.9668 24.8772 71.7674 25.2503 71.5955 25.5788C71.4229 25.9085 71.2641 26.233 71.119 26.5522C70.9558 26.2322 70.7879 25.9033 70.6153 25.5655C70.4427 25.2286 70.2432 24.8556 70.017 24.4465C69.7899 24.0374 69.5267 23.5709 69.2271 23.0471C68.9279 22.5224 68.5787 21.9136 68.1794 21.2205L65.2671 16.1836C64.9688 15.6277 64.5444 15.1525 64.029 14.7974C63.4805 14.4454 62.8408 14.2689 62.1927 14.2908C61.5032 14.285 60.8286 14.4941 60.2594 14.8901C59.6433 15.3409 59.2009 15.9962 59.0083 16.7431L54.2998 32.4158H59.8242L61.5388 26.2057C61.8108 25.1925 62.0468 24.2993 62.2471 23.526C62.4457 22.7535 62.618 22.0119 62.7638 21.3011C62.9092 21.6031 63.0582 21.9136 63.2131 22.2337C63.3669 22.5537 63.5482 22.9047 63.7571 23.2865C63.9652 23.6692 64.1965 24.0999 64.4512 24.5788C64.7054 25.0589 64.9955 25.6012 65.3215 26.2057L67.7715 30.7095C67.9637 31.0923 68.2064 31.4465 68.4928 31.7624C68.7111 31.9998 68.9635 32.2023 69.2413 32.3628C69.4945 32.5051 69.7709 32.5997 70.0572 32.642C70.6891 32.7319 71.3302 32.7319 71.9621 32.642C72.2488 32.5997 72.5255 32.5051 72.7792 32.3628C73.057 32.2023 73.3094 31.9999 73.5277 31.7624C73.8137 31.4462 74.0564 31.092 74.249 30.7095L76.6978 26.2322C77.3151 25.077 77.8141 24.122 78.1948 23.3671C78.5755 22.6115 78.9204 21.9228 79.2295 21.3011C79.3737 22.0303 79.546 22.7767 79.7462 23.5404C79.946 24.3045 80.1907 25.1929 80.4805 26.2057L82.1951 32.4157ZM105.421 32.4157H110.564V17.6491C110.576 17.1303 110.489 16.6142 110.307 16.1294C110.154 15.734 109.922 15.3754 109.626 15.0765C109.345 14.8012 109.005 14.5961 108.632 14.4773C108.254 14.3535 107.859 14.2906 107.462 14.2908C107.097 14.2911 106.734 14.3495 106.387 14.464C105.942 14.6378 105.539 14.9056 105.203 15.2498L94.0444 25.0589V14.5832H88.9291V29.3775C88.917 29.8963 89.0045 30.4126 89.1869 30.8972C89.3368 31.2898 89.5692 31.6443 89.868 31.9357C90.148 32.2022 90.4823 32.4027 90.8471 32.5229C91.2203 32.6473 91.6107 32.7102 92.0035 32.7094C92.3595 32.7076 92.713 32.6491 93.0512 32.5361C93.5029 32.3591 93.9151 32.0915 94.2632 31.7491L105.421 21.94V32.4157ZM141.108 32.4169L129.822 16.0512C129.463 15.5092 128.978 15.0652 128.411 14.7583C127.844 14.4513 127.211 14.2908 126.569 14.2908C125.927 14.2908 125.294 14.4513 124.727 14.7583C124.16 15.0652 123.675 15.5092 123.316 16.0512L112.028 32.4169H118.415L126.569 20.5791L134.723 32.4169H141.108ZM157.156 19.2218L160.347 14.5844H132.68L135.871 19.2218H143.715V32.4157H149.336V19.2218H157.156ZM177.837 27.8312L169.712 16.0512C169.353 15.5092 168.868 15.0652 168.301 14.7583C167.734 14.4513 167.101 14.2908 166.459 14.2908C165.817 14.2908 165.184 14.4513 164.617 14.7583C164.05 15.0652 163.565 15.5092 163.206 16.0512L151.918 32.4169H158.305L166.459 20.5791L171.455 27.8312H165.332L162.177 32.4169H181L177.851 27.8529V27.8312H177.837ZM177.295 17.4951C177.286 17.4324 177.266 17.3718 177.237 17.3158L176.836 16.6949C176.938 16.6676 177.029 16.6082 177.095 16.5253C177.174 16.4264 177.216 16.3025 177.215 16.1751C177.219 16.0253 177.167 15.8796 177.069 15.7672C177.015 15.7104 176.95 15.666 176.878 15.6372C176.806 15.6083 176.728 15.5956 176.651 15.5999H175.576C175.545 15.5964 175.514 15.5999 175.485 15.6103C175.456 15.6207 175.43 15.6376 175.408 15.6599C175.386 15.6821 175.37 15.709 175.36 15.7386C175.35 15.7683 175.346 15.7998 175.35 15.831V17.3928C175.346 17.4239 175.35 17.4555 175.36 17.4851C175.37 17.5148 175.386 17.5417 175.408 17.5639C175.43 17.5861 175.456 17.6031 175.485 17.6135C175.514 17.6238 175.545 17.6274 175.576 17.6238H175.695C175.726 17.6274 175.757 17.6238 175.786 17.6135C175.815 17.6031 175.841 17.5861 175.863 17.5639C175.885 17.5417 175.901 17.5148 175.911 17.4851C175.921 17.4555 175.925 17.4239 175.921 17.3928V16.0295H176.472C176.564 16.0295 176.605 16.0728 176.605 16.1751C176.605 16.2714 176.565 16.3099 176.472 16.3099H176.342C176.146 16.3099 176.116 16.4097 176.116 16.4699V16.5108C176.126 16.5839 176.156 16.6526 176.204 16.7082L176.672 17.4506C176.707 17.506 176.756 17.5511 176.813 17.5815C176.87 17.6119 176.935 17.6265 176.999 17.6238H177.139C177.28 17.6238 177.295 17.5336 177.295 17.4951ZM178.126 16.6828C178.128 16.9363 178.079 17.1874 177.981 17.4204C177.79 17.8781 177.428 18.24 176.975 18.4265C176.521 18.6131 176.014 18.6091 175.564 18.4155C175.345 18.3211 175.146 18.1846 174.977 18.0136C174.811 17.8428 174.677 17.6416 174.584 17.4204C174.486 17.1874 174.436 16.9363 174.438 16.6828C174.437 16.4329 174.486 16.1854 174.584 15.956C174.677 15.7344 174.81 15.5327 174.977 15.3617C175.146 15.1909 175.345 15.0549 175.564 14.961C175.791 14.8625 176.035 14.8118 176.282 14.8118C176.529 14.8118 176.774 14.8625 177.001 14.961C177.22 15.0549 177.42 15.1909 177.588 15.3617C177.755 15.5329 177.888 15.7345 177.981 15.956C178.078 16.1854 178.128 16.4329 178.126 16.6828ZM178.45 17.6202C178.576 17.3242 178.64 17.0051 178.638 16.6828C178.64 16.3621 178.576 16.0445 178.45 15.7503C178.329 15.467 178.157 15.2091 177.943 14.9898C177.729 14.7721 177.476 14.5981 177.197 14.4772C176.908 14.3524 176.597 14.2889 176.283 14.2907C175.973 14.2887 175.665 14.3494 175.379 14.4694C175.092 14.5895 174.831 14.7664 174.612 14.9898C174.398 15.2091 174.226 15.467 174.105 15.7503C173.979 16.0443 173.915 16.362 173.917 16.6828C173.915 17.0051 173.979 17.3243 174.105 17.6202C174.226 17.9056 174.398 18.1656 174.612 18.3867C174.828 18.6054 175.083 18.7805 175.363 18.9029C175.653 19.0315 175.966 19.097 176.283 19.0954C176.598 19.0973 176.909 19.0317 177.197 18.9029C177.761 18.6552 178.21 18.1958 178.45 17.6202" fill="#1E63CA"/>
<path d="M15.7042 39.4795L23.0933 46.9999L30.4837 39.4795C30.4837 39.4795 34.1776 35.7204 30.4825 31.9602L23.7094 25.0666L23.0933 40.1173L22.4773 25.0666L15.703 31.9602C15.703 31.9602 12.009 35.7192 15.7042 39.4795ZM21.5538 22.873L14.7795 15.9795C11.0843 12.2192 7.39033 15.9795 7.39033 15.9795L0 23.4999L7.39033 31.0192C11.0855 34.7795 14.7795 31.0204 14.7795 31.0204L21.5538 24.1269L6.76363 23.4999L21.5538 22.873ZM30.4825 7.51928L23.0933 0L15.703 7.51928C15.703 7.51928 12.009 11.2795 15.7042 15.0398L22.4773 21.9333L23.0933 6.88274L23.7094 21.9333L30.4837 15.0398C30.4837 15.0398 34.1776 11.2795 30.4825 7.51928ZM46.1866 23.4999L38.7963 15.9794C35.1011 12.2192 31.4071 15.9794 31.4071 15.9794L24.6329 22.873L39.423 23.4999L24.6329 24.1269L31.4071 31.0193C35.1023 34.7795 38.7963 31.0205 38.7963 31.0205L46.1866 23.4999Z" fill="#6FB72C"/>
</g>
<defs>
<clipPath id="clip0_2096_30964">
<rect width="181" height="47" fill="white"/>
</clipPath>
</defs>
</svg>
