<svg width="181" height="47" viewBox="0 0 181 47" fill="none" xmlns="http://www.w3.org/2000/svg">
<g clip-path="url(#clip0_2098_30546)">
<path d="M82.1951 32.4152H87.8023L83.2025 16.7426C83.0289 16.0293 82.6214 15.3976 82.0475 14.9518C81.4735 14.506 80.7672 14.2726 80.0454 14.2903C79.3866 14.2658 78.7362 14.4472 78.1818 14.8101C77.6726 15.1672 77.249 15.6364 76.9426 16.183L74.0314 21.2476C73.6317 21.9395 73.2825 22.5436 72.9838 23.0598C72.6834 23.5748 72.4201 24.0413 72.1939 24.4592C71.9668 24.8767 71.7674 25.2498 71.5955 25.5783C71.4229 25.908 71.2641 26.2325 71.119 26.5517C70.9558 26.2317 70.7879 25.9028 70.6153 25.565C70.4427 25.2281 70.2432 24.8551 70.017 24.446C69.7899 24.0369 69.5267 23.5704 69.2271 23.0466C68.9279 22.522 68.5787 21.9131 68.1794 21.22L65.2671 16.1831C64.9688 15.6272 64.5444 15.152 64.029 14.7969C63.4805 14.4449 62.8408 14.2684 62.1927 14.2903C61.5032 14.2845 60.8286 14.4936 60.2594 14.8896C59.6433 15.3404 59.2009 15.9957 59.0083 16.7426L54.2998 32.4153H59.8242L61.5388 26.2052C61.8108 25.192 62.0468 24.2988 62.2471 23.5255C62.4457 22.753 62.618 22.0114 62.7638 21.3006C62.9092 21.6027 63.0582 21.9131 63.2131 22.2332C63.3669 22.5532 63.5482 22.9042 63.7571 23.286C63.9652 23.6687 64.1965 24.0995 64.4512 24.5784C64.7054 25.0585 64.9955 25.6007 65.3215 26.2052L67.7715 30.7091C67.9637 31.0918 68.2064 31.446 68.4928 31.7619C68.7111 31.9993 68.9635 32.2018 69.2413 32.3624C69.4945 32.5047 69.7709 32.5992 70.0572 32.6415C70.6891 32.7314 71.3302 32.7314 71.9621 32.6415C72.2488 32.5992 72.5255 32.5047 72.7792 32.3624C73.057 32.2018 73.3094 31.9994 73.5277 31.7619C73.8137 31.4457 74.0564 31.0915 74.249 30.7091L76.6978 26.2317C77.3151 25.0765 77.8141 24.1215 78.1948 23.3667C78.5755 22.611 78.9204 21.9223 79.2295 21.3006C79.3737 22.0298 79.546 22.7763 79.7462 23.5399C79.946 24.304 80.1907 25.1924 80.4805 26.2052L82.1951 32.4152ZM105.421 32.4152H110.564V17.6486C110.576 17.1298 110.489 16.6137 110.307 16.1289C110.154 15.7335 109.922 15.3749 109.626 15.076C109.345 14.8007 109.005 14.5956 108.632 14.4768C108.254 14.3531 107.859 14.2901 107.462 14.2903C107.097 14.2906 106.734 14.3491 106.387 14.4636C105.942 14.6373 105.539 14.9051 105.203 15.2493L94.0444 25.0584V14.5827H88.9291V29.377C88.917 29.8958 89.0045 30.4121 89.1869 30.8968C89.3368 31.2893 89.5692 31.6438 89.868 31.9352C90.148 32.2017 90.4823 32.4022 90.8471 32.5224C91.2203 32.6468 91.6107 32.7097 92.0035 32.7089C92.3595 32.7071 92.713 32.6486 93.0512 32.5356C93.5029 32.3586 93.9151 32.091 94.2632 31.7486L105.421 21.9395V32.4152ZM141.108 32.4164L129.822 16.0507C129.463 15.5087 128.978 15.0647 128.411 14.7578C127.844 14.4508 127.211 14.2903 126.569 14.2903C125.927 14.2903 125.294 14.4508 124.727 14.7578C124.16 15.0647 123.675 15.5087 123.316 16.0507L112.028 32.4164H118.415L126.569 20.5786L134.723 32.4164H141.108ZM157.156 19.2213L160.347 14.5839H132.68L135.871 19.2213H143.715V32.4152H149.336V19.2213H157.156ZM177.837 27.8308L169.712 16.0507C169.353 15.5087 168.868 15.0647 168.301 14.7578C167.734 14.4508 167.101 14.2903 166.459 14.2903C165.817 14.2903 165.184 14.4508 164.617 14.7578C164.05 15.0647 163.565 15.5087 163.206 16.0507L151.918 32.4164H158.305L166.459 20.5786L171.455 27.8308H165.332L162.177 32.4164H181L177.851 27.8524V27.8308H177.837ZM177.295 17.4946C177.286 17.4319 177.266 17.3713 177.237 17.3153L176.836 16.6944C176.938 16.6671 177.029 16.6077 177.095 16.5248C177.174 16.4259 177.216 16.302 177.215 16.1746C177.219 16.0248 177.167 15.8791 177.069 15.7667C177.015 15.7099 176.95 15.6655 176.878 15.6367C176.806 15.6078 176.728 15.5951 176.651 15.5994H175.576C175.545 15.5959 175.514 15.5995 175.485 15.6098C175.456 15.6202 175.43 15.6371 175.408 15.6594C175.386 15.6816 175.37 15.7085 175.36 15.7382C175.35 15.7678 175.346 15.7993 175.35 15.8305V17.3923C175.346 17.4235 175.35 17.455 175.36 17.4846C175.37 17.5143 175.386 17.5412 175.408 17.5634C175.43 17.5856 175.456 17.6026 175.485 17.613C175.514 17.6233 175.545 17.6269 175.576 17.6234H175.695C175.726 17.6269 175.757 17.6233 175.786 17.613C175.815 17.6026 175.841 17.5856 175.863 17.5634C175.885 17.5412 175.901 17.5143 175.911 17.4846C175.921 17.455 175.925 17.4235 175.921 17.3923V16.029H176.472C176.564 16.029 176.605 16.0723 176.605 16.1746C176.605 16.2709 176.565 16.3094 176.472 16.3094H176.342C176.146 16.3094 176.116 16.4093 176.116 16.4694V16.5103C176.126 16.5835 176.156 16.6521 176.204 16.7077L176.672 17.4501C176.707 17.5055 176.756 17.5506 176.813 17.581C176.87 17.6114 176.935 17.626 176.999 17.6234H177.139C177.28 17.6234 177.295 17.5331 177.295 17.4946ZM178.126 16.6823C178.128 16.9358 178.079 17.1869 177.981 17.4199C177.79 17.8777 177.428 18.2395 176.975 18.426C176.521 18.6126 176.014 18.6086 175.564 18.4151C175.345 18.3206 175.146 18.1841 174.977 18.0132C174.811 17.8423 174.677 17.6411 174.584 17.4199C174.486 17.1869 174.436 16.9358 174.438 16.6823C174.437 16.4324 174.486 16.185 174.584 15.9556C174.677 15.7339 174.81 15.5322 174.977 15.3612C175.146 15.1905 175.345 15.0544 175.564 14.9605C175.791 14.862 176.035 14.8113 176.282 14.8113C176.529 14.8113 176.774 14.862 177.001 14.9605C177.22 15.0544 177.42 15.1904 177.588 15.3612C177.755 15.5324 177.888 15.734 177.981 15.9556C178.078 16.185 178.128 16.4324 178.126 16.6823ZM178.45 17.6197C178.576 17.3237 178.64 17.0046 178.638 16.6823C178.64 16.3616 178.576 16.044 178.45 15.7498C178.329 15.4665 178.157 15.2086 177.943 14.9893C177.729 14.7716 177.476 14.5976 177.197 14.4767C176.908 14.3519 176.597 14.2885 176.283 14.2902C175.973 14.2882 175.665 14.3489 175.379 14.469C175.092 14.589 174.831 14.7659 174.612 14.9893C174.398 15.2086 174.226 15.4665 174.105 15.7498C173.979 16.0438 173.915 16.3615 173.917 16.6823C173.915 17.0047 173.979 17.3238 174.105 17.6197C174.226 17.9051 174.398 18.1651 174.612 18.3862C174.828 18.6049 175.083 18.78 175.363 18.9024C175.653 19.031 175.966 19.0965 176.283 19.0949C176.598 19.0968 176.909 19.0312 177.197 18.9024C177.761 18.6547 178.21 18.1953 178.45 17.6197" fill="white"/>
<path d="M15.7042 39.4795L23.0933 46.9999L30.4837 39.4795C30.4837 39.4795 34.1776 35.7204 30.4825 31.9602L23.7094 25.0666L23.0933 40.1173L22.4773 25.0666L15.703 31.9602C15.703 31.9602 12.009 35.7192 15.7042 39.4795ZM21.5538 22.873L14.7795 15.9795C11.0843 12.2192 7.39033 15.9795 7.39033 15.9795L0 23.4999L7.39033 31.0192C11.0855 34.7795 14.7795 31.0204 14.7795 31.0204L21.5538 24.1269L6.76363 23.4999L21.5538 22.873ZM30.4825 7.51928L23.0933 0L15.703 7.51928C15.703 7.51928 12.009 11.2795 15.7042 15.0398L22.4773 21.9333L23.0933 6.88274L23.7094 21.9333L30.4837 15.0398C30.4837 15.0398 34.1776 11.2795 30.4825 7.51928ZM46.1866 23.4999L38.7963 15.9794C35.1011 12.2192 31.4071 15.9794 31.4071 15.9794L24.6329 22.873L39.423 23.4999L24.6329 24.1269L31.4071 31.0193C35.1023 34.7795 38.7963 31.0205 38.7963 31.0205L46.1866 23.4999Z" fill="white"/>
</g>
<defs>
<clipPath id="clip0_2098_30546">
<rect width="181" height="47" fill="white"/>
</clipPath>
</defs>
</svg>
