<svg width="16" height="17" viewBox="0 0 16 17" fill="none" xmlns="http://www.w3.org/2000/svg">
<path d="M11.0779 3.00136C11.2368 2.84241 11.4255 2.71632 11.6332 2.6303C11.8409 2.54428 12.0635 2.5 12.2883 2.5C12.513 2.5 12.7356 2.54428 12.9433 2.6303C13.151 2.71632 13.3397 2.84241 13.4986 3.00136C13.6576 3.16031 13.7837 3.34901 13.8697 3.55669C13.9557 3.76436 14 3.98695 14 4.21174C14 4.43653 13.9557 4.65912 13.8697 4.8668C13.7837 5.07447 13.6576 5.26317 13.4986 5.42212L5.32855 13.5922L2 14.5L2.90779 11.1714L11.0779 3.00136Z" stroke="#929292" stroke-linecap="round" stroke-linejoin="round"/>
</svg>
