<svg width="24" height="24" viewBox="0 0 24 24" fill="none" xmlns="http://www.w3.org/2000/svg">
<path d="M18.5 12C18.5 15.5899 15.5899 18.5 12 18.5C8.41015 18.5 5.5 15.5899 5.5 12C5.5 8.41015 8.41015 5.5 12 5.5C15.5899 5.5 18.5 8.41015 18.5 12Z" stroke="#1E63CA" stroke-linecap="round" stroke-linejoin="round"/>
<path d="M10.0596 9.99989C10.2163 9.55434 10.5257 9.17863 10.9329 8.93931C11.3401 8.7 11.8188 8.61252 12.2844 8.69237C12.7499 8.77222 13.1721 9.01424 13.4763 9.37558C13.7805 9.73691 13.9469 10.1942 13.9462 10.6666C13.9462 11.9999 11.9462 12.6666 11.9462 12.6666" stroke="#1E63CA" stroke-linecap="round" stroke-linejoin="round"/>
<path d="M12 15.3333H12.0071" stroke="#1E63CA" stroke-linecap="round" stroke-linejoin="round"/>
</svg>
