<svg width="16" height="17" viewBox="0 0 16 17" fill="none" xmlns="http://www.w3.org/2000/svg">
<path d="M14.5 8.5C14.5 12.0899 11.5899 15 8 15C4.41015 15 1.5 12.0899 1.5 8.5C1.5 4.91015 4.41015 2 8 2C11.5899 2 14.5 4.91015 14.5 8.5Z" stroke="#929292" stroke-linecap="round" stroke-linejoin="round"/>
<path d="M6.06055 6.50038C6.21728 6.05482 6.52665 5.67912 6.93385 5.4398C7.34105 5.20049 7.81981 5.11301 8.28533 5.19285C8.75085 5.2727 9.17309 5.51473 9.47727 5.87606C9.78144 6.2374 9.94792 6.69473 9.94721 7.16705C9.94721 8.50038 7.94721 9.16705 7.94721 9.16705" stroke="#929292" stroke-linecap="round" stroke-linejoin="round"/>
<path d="M8 11.832H8.00708" stroke="#929292" stroke-linecap="round" stroke-linejoin="round"/>
</svg>
