<svg width="40" height="40" viewBox="0 0 40 40" fill="none" xmlns="http://www.w3.org/2000/svg">
<circle cx="14.75" cy="15.75" r="2.25" fill="#EC463B"/>
<circle cx="25.25" cy="24.25" r="2.25" fill="#EC463B"/>
<path d="M13.6177 25.9889L26.1933 13.8294" stroke="#EC463B" stroke-width="2" stroke-linecap="round"/>
<path d="M16.7154 3.1775C18.5468 1.40584 21.4532 1.40584 23.2846 3.1775V3.1775C24.3318 4.19061 25.788 4.66376 27.2307 4.45969V4.45969C29.7537 4.10283 32.105 5.81119 32.5453 8.32094V8.32094C32.797 9.75612 33.697 10.9948 34.9842 11.6777V11.6777C37.235 12.872 38.1332 15.6362 37.0141 17.9254V17.9254C36.3742 19.2344 36.3742 20.7656 37.0141 22.0746V22.0746C38.1332 24.3638 37.235 27.128 34.9842 28.3223V28.3223C33.697 29.0052 32.797 30.2439 32.5453 31.6791V31.6791C32.105 34.1888 29.7537 35.8972 27.2307 35.5403V35.5403C25.788 35.3362 24.3318 35.8094 23.2846 36.8225V36.8225C21.4532 38.5942 18.5468 38.5942 16.7154 36.8225V36.8225C15.6682 35.8094 14.212 35.3362 12.7693 35.5403V35.5403C10.2463 35.8972 7.89495 34.1888 7.45471 31.6791V31.6791C7.20296 30.2439 6.30299 29.0052 5.01584 28.3223V28.3223C2.76497 27.128 1.86684 24.3638 2.98586 22.0746V22.0746C3.62577 20.7656 3.62577 19.2344 2.98586 17.9254V17.9254C1.86684 15.6362 2.76497 12.872 5.01584 11.6777V11.6777C6.30299 10.9948 7.20296 9.75612 7.45471 8.32094V8.32094C7.89495 5.81119 10.2463 4.10283 12.7693 4.45969V4.45969C14.212 4.66376 15.6682 4.19061 16.7154 3.1775V3.1775Z" stroke="#EC463B" stroke-width="2"/>
</svg>
