<svg width="40" height="40" viewBox="0 0 40 40" fill="none" xmlns="http://www.w3.org/2000/svg">
<path d="M6.66667 5H33.3333C33.7754 5 34.1993 5.17559 34.5118 5.48816C34.8244 5.80072 35 6.22464 35 6.66667V33.3333C35 33.7754 34.8244 34.1993 34.5118 34.5118C34.1993 34.8244 33.7754 35 33.3333 35H6.66667C6.22464 35 5.80072 34.8244 5.48816 34.5118C5.17559 34.1993 5 33.7754 5 33.3333V6.66667C5 6.22464 5.17559 5.80072 5.48816 5.48816C5.80072 5.17559 6.22464 5 6.66667 5Z" stroke="#6FB72C" stroke-width="2" stroke-linecap="round" stroke-linejoin="round"/>
<path d="M12.4004 17.4333H27.4004M12.4004 22.4333H27.4004M27.4004 17.4333L21.5671 11.6M18.2337 28.2666L12.4004 22.4333" stroke="#6FB72C" stroke-width="2" stroke-linecap="round" stroke-linejoin="round"/>
</svg>
